<svg id="Capa_1" enable-background="new 0 0 512 512" height="512" viewBox="0 0 512 512" width="512" xmlns="http://www.w3.org/2000/svg"><g><path d="m502 0h-492c-5.522 0-10 4.478-10 10v366c0 5.522 4.478 10 10 10h171.204c6.567 9.792 15.004 18.229 24.796 24.796v91.204c0 3.466 1.795 6.685 4.743 8.507 2.948 1.821 6.63 1.988 9.729.438l35.528-17.764 35.528 17.764c3.092 1.547 6.776 1.387 9.729-.438 2.948-1.822 4.743-5.041 4.743-8.507v-91.204c9.792-6.567 18.229-15.004 24.796-24.796h171.204c5.522 0 10-4.478 10-10v-366c0-5.522-4.477-10-10-10zm-246 406c-38.598 0-70-31.402-70-70s31.402-70 70-70 70 31.402 70 70-31.402 70-70 70zm0-160c-39.111 0-72.469 25.08-84.852 60h-91.148v-226h352v226h-91.148c-12.383-34.92-45.741-60-84.852-60zm30 239.819-25.528-12.764c-2.814-1.408-6.129-1.408-8.943 0l-25.529 12.764v-64.967c9.388 3.329 19.485 5.148 30 5.148s20.612-1.819 30-5.148zm206-119.819h-151.148c3.329-9.388 5.148-19.485 5.148-30 0-3.38-.194-6.716-.559-10h96.559c5.522 0 10-4.478 10-10v-246c0-5.522-4.478-10-10-10h-372c-5.522 0-10 4.478-10 10v246c0 5.522 4.478 10 10 9.99h96.559c-.365 3.294-.559 6.63-.559 10.01 0 10.515 1.819 20.612 5.148 30h-151.148v-346h472z"/><path d="m256 306c-16.542 0-30 13.458-30 30s13.458 30 30 30 30-13.458 30-30-13.458-30-30-30z"/><path d="m376 120h-240c-5.522 0-10 4.478-10 10s4.478 10 10 10h240c5.522 0 10-4.478 10-10s-4.477-10-10-10z"/><path d="m316 180h-120c-5.522 0-10 4.478-10 10s4.478 10 10 10h120c5.522 0 10-4.478 10-10s-4.477-10-10-10z"/></g></svg>