<svg id="Capa_1" enable-background="new 0 0 512 512" height="512" viewBox="0 0 512 512" width="512" xmlns="http://www.w3.org/2000/svg"><g><g><g><g><g><g><circle cx="256" cy="256" fill="#7584f2" r="256"/></g></g></g></g></g><path d="m368.306 79.536-33.625-33.625-224.415 224.416 33.492 33.492-6.218 6.218 88.536 88.536-67.811 67.811 38.782 38.782c18.927 4.462 38.662 6.834 58.953 6.834 141.385 0 256-114.615 256-256 0-17.217-1.712-34.033-4.953-50.298l-132.586-132.586z" fill="#4253ce"/><g><g><path d="m309.721 353.292-53.721 62.563-97.736 50.53v-195.473h97.736z" fill="#b180ff"/><path d="m353.736 466.385-97.736-50.53v-144.943h97.736z" fill="#8d48f9"/></g><g><path d="m256 24.048c-26.037 0-47.546 19.329-50.994 44.418-20.179-15.302-49.056-13.761-67.467 4.65-18.41 18.411-19.952 47.288-4.65 67.467-25.089 3.448-44.418 24.958-44.418 50.994s19.329 47.546 44.418 50.994c-15.302 20.179-13.76 49.056 4.65 67.467s47.288 19.952 67.467 4.65c3.448 25.089 24.957 44.418 50.994 44.418l33.262-167.529z" fill="#ff468c"/><path d="m379.111 140.582c15.302-20.179 13.76-49.056-4.65-67.467-18.411-18.411-47.288-19.952-67.467-4.65-3.448-25.088-24.957-44.417-50.994-44.417v335.058c26.037 0 47.546-19.329 50.994-44.418 20.179 15.302 49.056 13.761 67.467-4.65 18.41-18.411 19.952-47.288 4.65-67.467 25.089-3.448 44.418-24.958 44.418-50.994s-19.329-47.547-44.418-50.995z" fill="#d72878"/></g><g><path d="m256 58.192c-12.806-21.773-40.005-31.359-64.017-21.43-24.061 9.949-36.552 36.031-30.151 60.533-24.495-6.43-50.591 6.029-60.57 30.078-9.978 24.049-.368 51.324 21.484 64.124-21.867 12.773-31.51 40.037-21.561 64.098s36.031 36.552 60.533 30.151c-6.43 24.495 6.029 50.591 30.078 60.57s51.324.368 64.124-21.484c.026.044.054.086.08.131l44.014-133.358z" fill="#ff5f96"/><path d="m410.815 127.56c-9.949-24.061-36.031-36.552-60.533-30.151 6.43-24.495-6.029-50.592-30.078-60.57s-51.324-.368-64.124 21.484c-.026-.044-.054-.087-.08-.131v266.77c12.806 21.774 40.005 31.36 64.017 21.431 24.061-9.949 36.552-36.031 30.151-60.533 24.495 6.43 50.591-6.029 60.57-30.078 9.978-24.048.368-51.324-21.483-64.124 21.867-12.774 31.509-40.038 21.56-64.098z" fill="#ff468c"/></g><g><g><g><path d="m291.299 191.577-35.299 123.146c-68.012 0-123.147-55.135-123.147-123.147s55.135-123.146 123.147-123.146z" fill="#ffe473"/><path d="m379.147 191.577c0 68.012-55.135 123.147-123.147 123.147v-246.294c68.012 0 123.147 55.135 123.147 123.147z" fill="#ffd400"/><g><path d="m256 89.288 19.156 97.791-19.156 43.643-60.156 43.705 22.978-70.717-60.156-43.705h74.357z" fill="#ffd400"/><path d="m256 89.288 22.977 70.717h74.357l-60.156 43.705 22.978 70.717-60.156-43.705z" fill="#fdba12"/></g></g></g></g></g></g></svg>